<?xml version="1.0" encoding="UTF-8"?>
<svg width="74px" height="110px" viewBox="0 0 74 110" version="1.1" xmlns="http://www.w3.org/2000/svg" xmlns:xlink="http://www.w3.org/1999/xlink">
    <!-- Generator: Sketch 52.5 (67469) - http://www.bohemiancoding.com/sketch -->
    <title>GD Head (Full).svg</title>
    <desc>Created with Sketch.</desc>
    <g id="Tool_Domain-Appraisal_ok" stroke="none" stroke-width="1" fill="none" fill-rule="evenodd">
        <g id="Tool_DomainAppraisal_Home_Blank" transform="translate(-335.000000, -201.000000)" fill-rule="nonzero">
            <g id="Logo/Head/----Full---" transform="translate(335.000000, 201.000000)">
                <g id="GD-Head-(Full).svg">
                    <path d="M56.0061649,94.0908571 C55.9470251,94.0908571 55.8697491,94.0853571 55.8074552,94.0798571" id="Fill-1" fill="#ABA8D3"></path>
                    <path d="M31.1122581,11.3347143 C31.0870251,11.1728571 31.0783513,10.9976429 31.0783513,10.8208571 C31.0270968,8.28221429 33.4463082,5.50235714 33.5212186,2.68007143 L33.5354122,2.66828571 L33.5354122,2.60307143 C33.5117563,2.10335714 33.1592832,1.77807143 32.8107527,1.62328571 C32.4519713,1.46142857 32.0356272,1.39621429 31.5743369,1.39621429 C30.4696057,1.40957143 29.0912545,1.80714286 28.3539785,2.9315 C27.1593548,5.41671429 25.2621505,8.02921429 25.2440143,10.7257857 C25.236129,11.5775 25.4537634,12.4425714 25.9584229,13.2620714 C27.0032258,15.5595 28.4178495,17.6204286 29.5099642,20.086 C29.7023656,20.5330714 29.7883154,20.9377143 29.7883154,21.3140714 C29.7883154,22.0502857 29.4563441,22.7338571 28.8665233,23.3962143 C28.6867384,23.6405714 27.4944803,23.5895 26.8873118,24.5795 L26.8589247,24.64 L26.8486738,24.7122857 C26.8210753,24.8372143 26.8084588,24.959 26.8084588,25.0823571 C26.8163441,26.1155714 27.6253763,26.7669286 28.4951254,27.1008571 C29.0068817,27.2949286 29.4910394,27.3719286 29.9712545,27.3719286 C31.8030108,27.3625 33.3477419,26.2295 34.152043,24.9425 C34.7544803,23.9297143 35.0044444,22.9216429 35.0044444,21.9324286 C34.9405735,18.0973571 31.523871,14.7392143 31.1122581,11.3347143" id="Fill-2" fill="#DF652A"></path>
                    <path d="M45.1559857,16.0018571 C43.1830824,13.1740714 42.8787097,12.7505714 41.8094624,10.6071429 C41.5618638,10.0940714 41.0777061,9.328 41.0777061,8.44642857 C41.0926882,7.77228571 41.33319,7.007 42.3086022,6.1325 C42.8629391,5.63121429 43.0695341,4.86042857 43.0695341,4.08178571 C43.0695341,3.14442857 42.7517563,2.14107143 41.9845161,1.496 C41.2472401,1.00178571 40.597491,0.759785714 39.9737634,0.759785714 C38.6584946,0.770785714 37.8210753,1.7875 37.218638,2.98414286 C36.5949104,4.21457143 36.1312545,5.76478571 35.6628674,7.21285714 C35.4799283,7.80764286 35.3876703,8.393 35.3876703,8.97128571 C35.4546953,13.3508571 40.1637993,16.7600714 41.1975627,20.823 C41.3174194,21.2347143 41.3757706,21.6448571 41.3757706,22.0298571 C41.3757706,22.9884286 41.0461649,23.9682143 40.6353405,25.08 C40.5210036,25.3840714 40.4587097,25.6975714 40.4587097,25.9804286 C40.4673835,27.313 41.6651613,28.0162143 42.7391398,28.0162143 L42.7517563,28.0162143 C43.3526165,28.0162143 43.9913262,27.8009286 44.4565591,27.3200714 C46.6794265,25.0336429 47.5278853,23.0968571 47.5278853,21.373 C47.5231541,19.1832143 46.2197133,17.5285 45.1559857,16.0018571" id="Fill-3" fill="#DF652A"></path>
                    <path d="M6.42573477,15.6223571 C6.03383513,14.8452857 5.91318996,13.9299286 5.91318996,12.9462143 C5.91318996,11.6332857 6.14107527,10.2072143 6.14107527,8.844 C6.14107527,8.06614286 6.07562724,7.31264286 5.8209319,6.61021429 C5.59146953,6.039 5.02845878,5.88892857 4.56243728,5.88892857 C3.30394265,5.93371429 1.48243728,6.81135714 1.0172043,8.48964286 C0.803512545,10.3989286 0.303584229,12.4669286 0.294121864,14.399 C0.290179211,16.1142143 0.796415771,17.6997857 2.17870968,19.0150714 C4.31010753,21.0406429 6.56215054,22.6419286 7.82537634,24.4215714 C8.34028674,25.1475714 8.63598566,25.7054286 8.64387097,26.3465714 C8.64387097,26.7787143 8.53505376,27.2281429 8.33240143,27.7176429 C7.98623656,28.3006429 7.09204301,29.623 6.93827957,30.5501429 L6.92645161,30.6177143 L6.93827957,30.69 C6.93827957,31.1276429 7.37354839,31.5786429 7.76939068,31.5786429 C7.79383513,31.5786429 7.81749104,31.5715714 7.8474552,31.5715714 C8.33240143,31.5464286 8.68014337,31.3735714 9.08623656,31.3735714 C9.1209319,31.3735714 9.14379928,31.3735714 9.15247312,31.3782857 L9.39376344,31.3782857 C11.841362,31.3735714 13.4381362,29.414 13.8521147,27.6147143 C13.9420072,27.1912143 13.9696057,26.7975714 13.9696057,26.4165 C13.8789247,21.5466429 8.17784946,19.2413571 6.42573477,15.6223571" id="Fill-4" fill="#DF652A"></path>
                    <path d="M20.7241577,14.7046429 C18.9121147,11.7102857 16.4187814,9.009 16.1562007,6.072 C16.1632975,6.06335714 16.1632975,6.039 16.2642294,5.98635714 C16.6316846,5.67678571 17.8736201,5.54321429 18.7039427,5.20771429 C19.2125448,5.07021429 19.8993548,4.79207143 20.4994265,4.43221429 C21.0726882,4.06292857 21.6711828,3.68735714 21.7184946,2.90557143 C21.7255914,2.552 21.5063799,2.20392857 21.2012186,1.99021429 C20.228172,1.41585714 19.1636559,1.16914286 18.0951971,1.16914286 C14.8803584,1.17857143 11.503871,3.322 10.6814337,6.38864286 C10.5678853,6.87421429 10.5000717,7.34957143 10.5000717,7.81314286 C10.5836559,12.3655714 15.7043728,15.565 17.0078136,19.6625 L17.0180645,19.6868571 C17.1954839,20.1865714 17.2656631,20.6532857 17.2719713,21.1357143 C17.2719713,22.0165 17.0180645,22.9310714 16.7129032,23.9682143 C16.6316846,24.1740714 16.6072401,24.4082143 16.6072401,24.6187857 C16.5898925,25.1845 16.9005735,25.6669286 17.3184946,25.9112857 C17.7245878,26.1642857 18.2126882,26.2648571 18.7126165,26.2648571 C19.6659498,26.257 20.7028674,25.9317143 21.3376344,25.2418571 C22.4116129,23.8660714 22.8374194,22.3967857 22.8334767,20.9628571 C22.8303226,18.6803571 21.8194265,16.4882143 20.7241577,14.7046429" id="Fill-5" fill="#DF652A"></path>
                    <path d="M56.0061649,94.0908571 C55.9470251,94.0908571 55.8697491,94.0853571 55.8074552,94.0798571" id="Fill-6" fill="#ABA8D3"></path>
                    <path d="M10.6349104,66.693 C10.6443728,65.5835714 11.013405,64.3052143 11.5645878,63.613 C12.0061649,63.0661429 12.5360573,62.4540714 13.2528315,61.8412143 L13.8781362,64.4694286 C12.528172,65.1357143 11.4904659,65.8774286 10.6349104,66.693 M69.2448029,51.8500714 C67.0787097,50.7280714 64.2463082,50.094 61.1276703,50.094 C61.0890323,50.094 61.0527599,50.0987143 61.0141219,50.0987143 C58.1281004,42.8968571 54.4795699,37.5257143 50.1229391,34.1298571 C44.5850896,29.8453571 37.452043,27.5817143 29.4957706,27.5817143 C25.5436559,27.5817143 21.4630108,28.182 17.391828,29.2325 C17.1000717,28.4640714 16.8154122,27.6877857 16.4700358,26.9782857 C16.2997133,26.6255 15.7296057,26.4188571 15.3377061,26.7504286 C14.9883871,27.0788571 14.6942652,27.6909286 14.855914,28.3745 C14.9615771,28.8915 14.9639427,29.4100714 14.934767,29.9270714 C12.6756272,30.6247857 10.4259498,31.4215 8.21727599,32.4240714 L7.08494624,32.9512857 C6.71749104,33.1217857 6.52114695,33.5264286 6.61340502,33.9200714 L8.03749104,39.9095714 C7.41770609,40.4666429 6.80028674,41.0488571 6.13949821,41.5454286 C5.54731183,41.976 5.46845878,43.2472857 5.96602151,43.3918571 C6.98243728,43.6535 7.97519713,43.7572143 8.95612903,43.7713571 L10.4291039,49.9635714 C10.4062366,50.0193571 10.3888889,50.0806429 10.3660215,50.1356429 C10.1996416,50.5465714 9.94494624,50.9685 9.80379928,51.2945714 C9.46078853,52.0551429 10.1239427,52.9359286 10.5221505,52.7065 C10.6916846,52.6051429 10.8367742,52.4707857 10.9976344,52.3592143 L12.6149104,59.1587857 C11.1766308,60.1393571 10.2296057,61.1804286 9.55620072,62.0785 C8.5334767,63.4362143 8.11003584,65.1537857 8.09663082,66.7707857 C8.09663082,67.7018571 8.24487455,68.5983571 8.61942652,69.4131429 C8.63519713,69.4492857 8.67383513,69.4791429 8.6911828,69.5152857 C8.30637993,70.543 8.1297491,71.6241429 8.13369176,72.7194286 C8.13369176,73.1484286 8.16129032,73.5939286 8.19756272,74.0465 C8.38365591,76.4727857 9.87713262,78.3152857 11.802724,79.3893571 C13.5288172,80.3495 15.6207885,80.8130714 17.7884588,80.9144286 L24.3892473,108.671357 C24.4523297,108.928286 24.6313262,109.146714 24.8757706,109.255143 C24.9861649,109.303071 25.105233,109.327429 25.2235125,109.327429 C25.3670251,109.327429 25.508172,109.292071 25.635914,109.223714 L27.3785663,108.273 C29.0194982,107.377286 31.65319,105.840429 34.8877419,103.601143 C36.0476703,102.801286 37.0601434,102.471286 38.5149821,102.457929 C39.6733333,102.457929 40.9870251,102.801286 42.5073118,103.202786 C44.465233,103.720571 46.6833692,104.305929 49.2697491,104.327143 C50.3713262,104.327143 51.4847312,104.204571 52.5760573,103.961 C55.3918996,103.349714 57.6999283,101.675357 58.9024373,99.3755714 C59.6996416,97.8654286 60.1081004,96.1352857 60.1199283,94.2252143 C60.1199283,93.6917143 60.0789247,93.2839286 60.0560573,93.0254286 C59.9969176,90.3052857 58.5539068,87.4366429 57.1597849,84.6599286 L56.7142652,83.7681429 C54.3187097,79.1740714 53.8550538,77.4675 53.8873835,76.8342143 C53.8913262,76.769 53.8929032,76.7171429 53.8779211,76.7069286 C54.3912545,76.3140714 56.5344803,75.5197143 59.3313978,74.8502857 C60.6017204,74.5367857 61.8129032,74.2248571 62.8064516,73.9019286 C63.3032258,73.7298571 63.7913262,73.5483571 64.2478853,73.2749286 C64.5727599,73.1012857 64.8495341,72.8867857 65.1365591,72.5811429 C65.5883871,72.0633571 65.8391398,71.4206429 65.8391398,70.7653571 C65.8312545,69.3070714 65.5387097,66.6301429 64.886595,63.3073571 C66.5070251,63.0111429 67.9957706,62.5491429 69.2448029,61.9103571 C71.358853,60.8127143 73.0060932,59.1187143 73.04,56.8794286 C73.0060932,54.6330714 71.358853,52.9579286 69.2448029,51.8500714" id="Fill-7" fill="#111111"></path>
                    <path d="M13.9081004,49.8394286 C14.4237993,49.2155714 14.9655197,48.5202143 15.5624373,47.7132857 L15.697276,47.5357143 C16.2563441,46.7979286 16.8895341,45.9627143 17.5203584,45.9627143 C17.5416487,45.9627143 17.5629391,45.9635 17.5842294,45.9658571 C19.4002151,46.1607143 20.6902509,47.0477857 22.1845161,48.0739286 C22.5898208,48.3528571 23.0108961,48.6427857 23.4619355,48.9319286 C23.7387097,49.1118571 24.0131183,49.3169286 24.2780645,49.5149286 C25.0673835,50.1042143 25.882724,50.7139286 26.8455197,50.7139286 L26.8463082,50.7139286 C26.9748387,50.7139286 27.1057348,50.7029286 27.2350538,50.6817143 L27.2389964,50.6817143 C27.5315412,50.6817143 27.6994982,50.3674286 27.8784946,50.0350714 C27.9699642,49.8645714 28.0645878,49.6877857 28.1820789,49.544 L28.1970609,49.5259286 L28.2073118,49.5039286 C28.366595,49.1519286 28.1497491,48.7928571 28.0196416,48.5783571 C27.9951971,48.5367143 27.9723297,48.5013571 27.9573477,48.4707143 C27.8248746,48.2043571 27.708172,47.9568571 27.5954122,47.7203571 C27.2074552,46.9008571 26.8723297,46.1945 26.2099642,45.342 C25.4592832,44.3732143 24.7535484,43.4209286 24.070681,42.5000714 C23.6835125,41.9775714 23.2955556,41.4527143 22.8949821,40.9207857 C23.8033692,40.2112857 24.7882437,39.8812857 25.8267384,39.534 C26.3085305,39.3729286 26.8060932,39.2071429 27.2941935,38.9989286 C27.7050179,38.8465 27.9825806,38.1409286 27.8682437,37.521 C27.7949104,37.1635 27.5370609,36.8916429 27.3194265,36.7565 L27.2815771,36.7329286 L27.2389964,36.729 C26.1587097,36.6378571 25.1525448,36.3777857 23.8751254,35.86 C23.2521864,35.7240714 22.6655197,35.7162143 22.0969892,35.7083571 C21.274552,35.6965714 20.498638,35.6863571 19.7187814,35.3390714 C19.3529032,35.1638571 19.2235842,34.5651429 19.1092473,34.0363571 C19.0777061,33.891 19.0477419,33.7503571 19.0138351,33.6222857 C18.9365591,33.3370714 18.8506093,33.0644286 18.7646595,32.7902143 C18.7260215,32.6684286 18.6873835,32.5458571 18.6487455,32.4225 C22.4628674,31.4717857 26.1090323,30.9901429 29.493405,30.9901429 C36.6942652,30.9901429 43.1002867,33.0078571 48.0167742,36.8248571 C51.6124731,39.6078571 54.7484588,44.1186429 57.341147,50.2354286 C55.63319,50.5159286 54.1578495,50.9606429 52.954552,51.5577857 C51.4705376,52.2751429 50.3382079,53.3146429 49.6726882,54.5694286 C49.4424373,54.5395714 49.2224373,54.5293571 49.0174194,54.5238571 C48.3739785,54.5332857 47.751828,54.6338571 47.2952688,54.7226429 C46.2875269,50.4436429 41.8063082,47.3495 36.5602151,47.3424286 C30.9624373,47.3495 26.3321864,50.8475 25.7139785,55.5012857 C21.7358423,55.6678571 18.4555556,56.2830714 15.6996416,57.3783571 L13.9081004,49.8394286" id="Fill-8" fill="#FFFFFE"></path>
                    <path d="M10.4212186,35.1725 C11.5716846,34.6751429 12.7410753,34.2461429 13.8505376,33.8572143 C13.7015054,34.3239286 13.562724,34.7741429 13.4444444,35.2235714 C13.3356272,35.42 13.1195699,35.5952143 12.9106093,35.7657143 C12.8585663,35.8089286 12.6969176,35.9456429 12.6969176,35.9456429 L12.6969176,36.3997857 C12.2048746,36.8075714 11.673405,37.1941429 11.0047312,37.6262857 L10.4212186,35.1725" id="Fill-9" fill="#FFFFFE"></path>
                    <path d="M16.3691039,60.1951429 C18.7599283,59.1831429 21.8651613,58.5875714 25.8503943,58.377 C26.9101792,62.5797857 31.3850896,65.6236429 36.5602151,65.637 C42.0444444,65.6228571 46.6731183,62.194 47.3883154,57.6407857 L47.3891039,57.6407857 C48.012043,57.4985714 48.6176344,57.4145 49.0118996,57.4145 C49.0505376,57.4145 49.0836559,57.4152857 49.1144086,57.4176429 C49.3367742,59.4047143 50.6962007,61.1034286 52.9553405,62.2112857 C55.1119713,63.2790714 57.9380645,63.844 61.1284588,63.844 C61.225448,63.844 61.3192832,63.8369286 61.4131183,63.8298571 C61.4351971,63.8282857 61.457276,63.8259286 61.4785663,63.8251429 C62.0053047,66.4470714 62.3451613,68.8843571 62.3972043,70.4055 C61.7718996,70.7103571 60.1183513,71.1377857 58.894552,71.4536429 L58.8393548,71.4685714 C56.086595,72.1757143 52.9797849,72.9755714 51.5194265,74.2429286 C49.1096774,76.3565 51.2931183,80.6394286 53.6050896,85.1722143 C54.6830108,87.2920714 55.6237276,89.1935 56.1749104,90.8843571 C51.0975627,90.1363571 47.7226523,88.8312857 44.8973477,86.5283571 C42.174552,84.3126429 39.9430108,81.1022143 37.3589964,77.385 C37.0435842,76.9308571 36.5231541,76.659 35.9656631,76.659 C35.6187097,76.659 35.2835842,76.7635 34.9957706,76.9607143 C34.6243728,77.2113571 34.3728315,77.5963571 34.2900358,78.0426429 C34.2072401,78.4912857 34.306595,78.9430714 34.5675986,79.3147143 L34.7260932,79.5417857 C37.3629391,83.3344286 39.6410036,86.6100714 42.743871,89.1605 C46.0832975,91.8885 50.2262366,93.5086429 55.7837993,94.2597857 C56.1465233,94.3092857 56.4351254,94.3446429 56.7118996,94.3768571 C56.7048029,96.3804286 56.0290323,99.6953571 51.8316846,100.65 C51.0817921,100.818143 50.2711828,100.903786 49.4219355,100.903786 C47.4498208,100.903786 45.462724,100.452 43.6096774,99.9656429 C41.8110394,99.4957857 40.1385663,99.0581429 38.3738351,99.0581429 C36.3756989,99.0581429 34.6220072,99.6332857 32.8556989,100.868429 C31.8684588,101.544929 29.6195699,103.0865 26.930681,104.632 L16.3691039,60.1951429" id="Fill-10" fill="#FFFFFE"></path>
                    <path d="M16.9305376,78.0937143 C15.4283871,77.9310714 14.1304659,77.55 13.1637276,76.9842857 C11.7538351,76.1757857 11.0678136,75.196 10.9384946,73.8068571 C10.9037993,73.3566429 10.8872401,73.0093571 10.8872401,72.7194286 C10.9006452,71.06 11.2531183,70.0165714 12.1441577,68.9975 C12.6582796,68.4184286 13.4050179,67.848 14.3646595,67.3027143 L16.9305376,78.0937143" id="Fill-11" fill="#FFFFFE"></path>
                    <path d="M61.1150538,60.9745714 C58.4206452,60.9667143 55.9328315,60.4772143 54.2477419,59.6317857 C52.7061649,58.8484286 51.9247312,57.9220714 51.9247312,56.8786429 C51.9247312,55.8462143 52.7061649,54.923 54.2485305,54.1349286 C55.349319,53.5857143 56.8451613,53.1818571 58.5744086,52.9681429 C59.5096057,52.8518571 60.3083871,52.7976429 61.0858781,52.7976429 L61.1363441,52.7976429 C61.3098208,52.7976429 61.4754122,52.8102143 61.6425806,52.8212143 C61.7482437,52.8290714 61.8539068,52.8369286 61.962724,52.8416429 C64.2573477,52.9406429 66.453405,53.4529286 67.9870968,54.2472857 C69.7478853,55.1618571 70.3487455,56.2029286 70.3243011,56.8731429 C70.347957,57.5527857 69.7470968,58.5930714 67.9863082,59.5131429 C67.0274552,60.0081429 65.7618638,60.4080714 64.3259498,60.6697143 C63.1951971,60.8747857 62.1488172,60.9753571 61.1284588,60.9753571 L61.1150538,60.9745714" id="Fill-12" fill="#3BAB4E"></path>
                    <path d="M36.5602151,62.7408571 C34.3799283,62.7408571 32.2564158,62.04 30.734552,60.8166429 C29.2883871,59.6365 28.4911828,58.0965 28.4911828,56.4802857 C28.4911828,54.8766429 29.2883871,53.3358571 30.736129,52.1439286 C32.2674552,50.9213571 34.3909677,50.2197143 36.5602151,50.2197143 C38.7263082,50.2197143 40.8521864,50.9213571 42.3906093,52.1455 C43.8407168,53.3374286 44.6410753,54.8774286 44.6410753,56.4802857 C44.6410753,58.0949286 43.8407168,59.6349286 42.3882437,60.8174286 C40.8443011,62.0580714 38.7744086,62.7408571 36.5602151,62.7408571" id="Fill-13" fill="#3BAB4E"></path>
                    <path d="M12.4958423,48.5241429 C12.7308244,47.6622143 12.8877419,46.8277857 13.0099642,46.1253571 C13.0635842,45.8165714 13.1156272,45.5054286 13.1684588,45.1872143 C13.2346953,44.7935714 13.302509,44.3881429 13.3774194,43.967 C13.4444444,43.6849286 13.5840143,43.417 13.7314695,43.1325714 C13.8339785,42.9345714 13.9404301,42.7295 14.0334767,42.5000714 C14.234552,41.9838571 14.1998566,41.4676429 13.9420072,41.1164286 L13.9270251,41.0967857 L13.9081004,41.0826429 C13.7354122,40.9451429 13.5232975,40.876 13.277276,40.876 C12.8538351,40.876 12.435914,41.0826429 12.2230108,41.2052143 C12.1512545,41.2405714 12.0534767,41.2562857 11.9501792,41.272 C11.8610753,41.2869286 11.7711828,41.3010714 11.6836559,41.3293571 C11.1876703,41.4865 10.6782796,41.5658571 10.1712545,41.5658571 C9.79512545,41.5658571 9.41663082,41.5218571 9.04129032,41.4362143 C9.29756272,41.1297857 9.62716846,40.9537857 9.94810036,40.7809286 C10.1002867,40.6992143 10.2469534,40.6198571 10.3794265,40.5318571 C10.7263799,40.3582143 11.0804301,40.1790714 11.4313262,39.974 C11.6970609,39.8168571 12.0448029,39.5992143 12.3657348,39.3022143 C12.4422222,39.237 12.5612903,39.193 12.6756272,39.1505714 C12.8459498,39.0869286 13.0367742,39.0146429 13.1313978,38.841 C13.2370609,38.7270714 13.3490323,38.621 13.4633692,38.5133571 C13.7795699,38.2147857 14.10681,37.9052143 14.3504659,37.4062857 C15.0467384,36.3078571 15.3621505,35.0035714 15.6688889,33.7440714 C15.7209319,33.5287857 15.7737634,33.3127143 15.828172,33.0974286 C15.9472401,32.6244286 16.0812903,32.1262857 16.25319,31.636 C16.4124731,31.9730714 16.5662366,32.3439286 16.7255197,32.7745 C17.0015054,33.5209286 17.2293907,34.2830714 17.4698925,35.0907857 C17.7498208,36.0320714 18.0407885,37.0055714 18.416129,37.9570714 C18.4342652,38.0332857 18.5123297,38.1982857 18.765448,38.1982857 C18.8072401,38.1982857 18.8529749,38.1935714 18.9002867,38.1880714 C18.9381362,38.1841429 18.9767742,38.1794286 19.0154122,38.1794286 C19.0911111,38.1794286 19.1234409,38.1943571 19.1557706,38.2745 L19.2464516,38.5015714 L19.4380645,38.3483571 C19.9143369,37.9688571 20.4458065,37.9177857 20.9031541,37.9177857 C21.0845161,37.9177857 21.2666667,37.9264286 21.4480287,37.9350714 C21.6356989,37.9445 21.8225806,37.9531429 22.0070968,37.9531429 C22.1072401,37.9531429 22.2136918,37.9452857 22.3232975,37.9358571 C22.4297491,37.9272143 22.5393548,37.9177857 22.6505376,37.9177857 C22.8658065,37.9177857 23.1094624,37.95 23.3357706,38.1527143 C23.0802867,38.2855 22.827957,38.4237857 22.5772043,38.5620714 C21.8643728,38.9533571 21.1901792,39.3234286 20.4812903,39.5481429 L20.4552688,39.5552143 L20.43319,39.5717143 C20.1903226,39.7375 19.8922581,40.1665 19.8157706,40.634 C19.7653047,40.9435714 19.8228674,41.2240714 19.9821505,41.4487857 C20.0917563,41.7300714 20.3267384,41.8903571 20.5356989,42.0325714 C20.6689606,42.1229286 20.7935484,42.207 20.8755556,42.3130714 C22.2594265,43.6472143 23.4989964,45.2155 24.6762724,47.1208571 C24.6620789,47.124 24.6486738,47.1255714 24.6352688,47.1255714 C24.4807168,47.1255714 24.2993548,46.937 24.122724,46.7555 L24.0060215,46.6345 C23.1686022,45.9485714 22.3193548,45.474 21.4992832,45.0159286 C20.5798566,44.5012857 19.6296774,43.9709286 18.7070968,43.1522143 C18.4713262,42.9455714 18.2237276,42.8402857 17.9706093,42.8402857 C17.314552,42.8402857 16.7696774,43.5105 16.1948387,44.2192143 C15.9030824,44.5790714 15.6018638,44.9515 15.2982796,45.2060714 C14.6169892,45.8024286 14.0571326,46.5292143 13.5162007,47.2316429 C13.381362,47.4076429 13.2457348,47.5828571 13.109319,47.7565 C13.0462366,47.8366429 12.9839427,47.9175714 12.9208602,48.0000714 C12.7789247,48.1855 12.642509,48.3638571 12.4958423,48.5272857 L12.4958423,48.5241429" id="Fill-14" fill="#F9D94E"></path>
                    <path d="M18.9089606,107.0685 L19.1431541,107.0685 C19.4175627,107.0685 19.6383513,106.977357 19.6383513,106.758143 C19.6383513,106.5625 19.4956272,106.433643 19.1817921,106.433643 C19.0524731,106.433643 18.9610036,106.445429 18.9089606,106.458786 L18.9089606,107.0685 Z M18.8963441,108.275357 L18.401147,108.275357 L18.401147,106.147643 C18.5967025,106.109143 18.8695341,106.082429 19.2220072,106.082429 C19.6257348,106.082429 19.8070968,106.147643 19.9640143,106.238 C20.0807168,106.329929 20.1721864,106.498071 20.1721864,106.7055 C20.1721864,106.939643 19.9900358,107.120357 19.7298208,107.198143 L19.7298208,107.224857 C19.9379928,107.301857 20.0554839,107.457429 20.1209319,107.743429 C20.1855914,108.068714 20.2242294,108.197571 20.2762724,108.275357 L19.7424373,108.275357 C19.6769892,108.197571 19.6383513,108.002714 19.5729032,107.756 C19.5342652,107.522643 19.4033692,107.419714 19.1305376,107.419714 L18.8963441,107.419714 L18.8963441,108.275357 Z M17.5810753,107.159643 C17.5810753,108.107214 18.2844444,108.859143 19.2472401,108.859143 C20.1855914,108.859143 20.8755556,108.107214 20.8755556,107.173 C20.8755556,106.224643 20.1855914,105.459357 19.2346237,105.459357 C18.2844444,105.459357 17.5810753,106.224643 17.5810753,107.159643 Z M21.4227957,107.159643 C21.4227957,108.3665 20.471828,109.313286 19.2346237,109.313286 C18.0100358,109.313286 17.0346237,108.3665 17.0346237,107.159643 C17.0346237,105.978714 18.0100358,105.031929 19.2346237,105.031929 C20.471828,105.031929 21.4227957,105.978714 21.4227957,107.159643 Z" id="Fill-15" fill="#121311"></path>
                </g>
            </g>
        </g>
    </g>
</svg>